<svg class="main-svg" xmlns="http://www.w3.org/2000/svg" xmlns:xlink="http://www.w3.org/1999/xlink" width="800" height="600" style="" viewBox="0 0 800 600"><rect x="0" y="0" width="800" height="600" style="fill: rgb(241, 243, 245); fill-opacity: 1;"/><defs id="defs-e69d8b"><g class="clips"><clipPath id="clipe69d8bxyplot" class="plotclip"><rect width="623" height="416"/></clipPath><clipPath class="axesclip" id="clipe69d8bx"><rect x="97" y="0" width="623" height="600"/></clipPath><clipPath class="axesclip" id="clipe69d8by"><rect x="0" y="100" width="800" height="416"/></clipPath><clipPath class="axesclip" id="clipe69d8bxy"><rect x="97" y="100" width="623" height="416"/></clipPath></g><g class="gradients"/></defs><g class="bglayer"/><g class="layer-below"><g class="imagelayer"/><g class="shapelayer"/></g><g class="cartesianlayer"><g class="subplot xy"><g class="layer-subplot"><g class="shapelayer"/><g class="imagelayer"/></g><g class="gridlayer"><g class="x"><path class="xgrid crisp" transform="translate(700.53,0)" d="M0,100v416" style="stroke: rgb(203, 210, 216); stroke-opacity: 1; stroke-width: 1px;"/></g><g class="y"/></g><g class="zerolinelayer"/><path class="xlines-below"/><path class="ylines-below"/><g class="overlines-below"/><g class="xaxislayer-below"/><g class="yaxislayer-below"/><g class="overaxes-below"/><g class="plot" transform="translate(97,100)" clip-path="url('#clipe69d8bxyplot')"><g class="scatterlayer mlayer"><g class="trace scatter traceea5074" style="stroke-miterlimit: 2; opacity: 1;"><g class="fills"/><g class="errorbars"/><g class="lines"><path class="js-line" d="M330.97,390.2L623,390.2" style="vector-effect: non-scaling-stroke; fill: none; stroke: rgb(0, 165, 255); stroke-opacity: 1; stroke-width: 3px; opacity: 1;"/></g><g class="points"/><g class="text"/></g><g class="trace scatter traceeb09a9" style="stroke-miterlimit: 2; opacity: 1;"><g class="fills"/><g class="errorbars"/><g class="lines"><path class="js-line" d="M330.97,364.17L623,364.17" style="vector-effect: non-scaling-stroke; fill: none; stroke: rgb(0, 165, 255); stroke-opacity: 1; stroke-width: 3px; opacity: 1;"/></g><g class="points"/><g class="text"/></g><g class="trace scatter tracead9c49" style="stroke-miterlimit: 2; opacity: 1;"><g class="fills"/><g class="errorbars"/><g class="lines"><path class="js-line" d="M330.97,338.14L623,338.14" style="vector-effect: non-scaling-stroke; fill: none; stroke: rgb(0, 165, 255); stroke-opacity: 1; stroke-width: 3px; opacity: 1;"/></g><g class="points"/><g class="text"/></g><g class="trace scatter trace782999" style="stroke-miterlimit: 2; opacity: 1;"><g class="fills"/><g class="errorbars"/><g class="lines"><path class="js-line" d="M330.97,312.11L623,312.11" style="vector-effect: non-scaling-stroke; fill: none; stroke: rgb(0, 165, 255); stroke-opacity: 1; stroke-width: 3px; opacity: 1;"/></g><g class="points"/><g class="text"/></g><g class="trace scatter trace697431" style="stroke-miterlimit: 2; opacity: 1;"><g class="fills"/><g class="errorbars"/><g class="lines"><path class="js-line" d="M330.97,286.09L623,286.09" style="vector-effect: non-scaling-stroke; fill: none; stroke: rgb(0, 165, 255); stroke-opacity: 1; stroke-width: 3px; opacity: 1;"/></g><g class="points"/><g class="text"/></g><g class="trace scatter trace88c56f" style="stroke-miterlimit: 2; opacity: 1;"><g class="fills"/><g class="errorbars"/><g class="lines"><path class="js-line" d="M330.97,260.06L623,260.06" style="vector-effect: non-scaling-stroke; fill: none; stroke: rgb(0, 165, 255); stroke-opacity: 1; stroke-width: 3px; opacity: 1;"/></g><g class="points"/><g class="text"/></g><g class="trace scatter trace1c9405" style="stroke-miterlimit: 2; opacity: 1;"><g class="fills"/><g class="errorbars"/><g class="lines"><path class="js-line" d="M311.5,234.03L623,234.03" style="vector-effect: non-scaling-stroke; fill: none; stroke: rgb(0, 165, 255); stroke-opacity: 1; stroke-width: 3px; opacity: 1;"/></g><g class="points"/><g class="text"/></g><g class="trace scatter trace4fd5ee" style="stroke-miterlimit: 2; opacity: 1;"><g class="fills"/><g class="errorbars"/><g class="lines"><path class="js-line" d="M292.03,208L623,208" style="vector-effect: non-scaling-stroke; fill: none; stroke: rgb(0, 165, 255); stroke-opacity: 1; stroke-width: 3px; opacity: 1;"/></g><g class="points"/><g class="text"/></g><g class="trace scatter trace70de88" style="stroke-miterlimit: 2; opacity: 1;"><g class="fills"/><g class="errorbars"/><g class="lines"><path class="js-line" d="M292.03,181.97L623,181.97" style="vector-effect: non-scaling-stroke; fill: none; stroke: rgb(0, 165, 255); stroke-opacity: 1; stroke-width: 3px; opacity: 1;"/></g><g class="points"/><g class="text"/></g><g class="trace scatter trace3f482f" style="stroke-miterlimit: 2; opacity: 1;"><g class="fills"/><g class="errorbars"/><g class="lines"><path class="js-line" d="M272.56,155.94L623,155.94" style="vector-effect: non-scaling-stroke; fill: none; stroke: rgb(0, 165, 255); stroke-opacity: 1; stroke-width: 3px; opacity: 1;"/></g><g class="points"/><g class="text"/></g><g class="trace scatter trace055aef" style="stroke-miterlimit: 2; opacity: 1;"><g class="fills"/><g class="errorbars"/><g class="lines"><path class="js-line" d="M253.09,129.91L623,129.91" style="vector-effect: non-scaling-stroke; fill: none; stroke: rgb(0, 165, 255); stroke-opacity: 1; stroke-width: 3px; opacity: 1;"/></g><g class="points"/><g class="text"/></g><g class="trace scatter tracebbbc05" style="stroke-miterlimit: 2; opacity: 1;"><g class="fills"/><g class="errorbars"/><g class="lines"><path class="js-line" d="M194.69,103.89L623,103.89" style="vector-effect: non-scaling-stroke; fill: none; stroke: rgb(0, 165, 255); stroke-opacity: 1; stroke-width: 3px; opacity: 1;"/></g><g class="points"/><g class="text"/></g><g class="trace scatter trace34dae9" style="stroke-miterlimit: 2; opacity: 1;"><g class="fills"/><g class="errorbars"/><g class="lines"><path class="js-line" d="M194.69,77.86L623,77.86" style="vector-effect: non-scaling-stroke; fill: none; stroke: rgb(0, 165, 255); stroke-opacity: 1; stroke-width: 3px; opacity: 1;"/></g><g class="points"/><g class="text"/></g><g class="trace scatter trace7fc8c9" style="stroke-miterlimit: 2; opacity: 1;"><g class="fills"/><g class="errorbars"/><g class="lines"><path class="js-line" d="M155.75,51.83L623,51.83" style="vector-effect: non-scaling-stroke; fill: none; stroke: rgb(0, 165, 255); stroke-opacity: 1; stroke-width: 3px; opacity: 1;"/></g><g class="points"/><g class="text"/></g><g class="trace scatter trace29f7df" style="stroke-miterlimit: 2; opacity: 1;"><g class="fills"/><g class="errorbars"/><g class="lines"><path class="js-line" d="M116.81,25.8L623,25.8" style="vector-effect: non-scaling-stroke; fill: none; stroke: rgb(0, 165, 255); stroke-opacity: 1; stroke-width: 3px; opacity: 1;"/></g><g class="points"/><g class="text"/></g><g class="trace scatter trace98c57b" style="stroke-miterlimit: 2; opacity: 1;"><g class="fills"/><g class="errorbars"/><g class="lines"/><g class="points"><path class="point" transform="translate(330.97,390.2)" d="M4,0A4,4 0 1,1 0,-4A4,4 0 0,1 4,0Z" style="opacity: 1; stroke-width: 2px; fill: rgb(0, 165, 255); fill-opacity: 1; stroke: rgb(68, 68, 68); stroke-opacity: 1;"/><path class="point" transform="translate(330.97,364.17)" d="M4,0A4,4 0 1,1 0,-4A4,4 0 0,1 4,0Z" style="opacity: 1; stroke-width: 2px; fill: rgb(0, 165, 255); fill-opacity: 1; stroke: rgb(68, 68, 68); stroke-opacity: 1;"/><path class="point" transform="translate(330.97,338.14)" d="M4,0A4,4 0 1,1 0,-4A4,4 0 0,1 4,0Z" style="opacity: 1; stroke-width: 2px; fill: rgb(0, 165, 255); fill-opacity: 1; stroke: rgb(68, 68, 68); stroke-opacity: 1;"/><path class="point" transform="translate(330.97,312.11)" d="M4,0A4,4 0 1,1 0,-4A4,4 0 0,1 4,0Z" style="opacity: 1; stroke-width: 2px; fill: rgb(0, 165, 255); fill-opacity: 1; stroke: rgb(68, 68, 68); stroke-opacity: 1;"/><path class="point" transform="translate(330.97,286.09)" d="M4,0A4,4 0 1,1 0,-4A4,4 0 0,1 4,0Z" style="opacity: 1; stroke-width: 2px; fill: rgb(0, 165, 255); fill-opacity: 1; stroke: rgb(68, 68, 68); stroke-opacity: 1;"/><path class="point" transform="translate(330.97,260.06)" d="M4,0A4,4 0 1,1 0,-4A4,4 0 0,1 4,0Z" style="opacity: 1; stroke-width: 2px; fill: rgb(0, 165, 255); fill-opacity: 1; stroke: rgb(68, 68, 68); stroke-opacity: 1;"/><path class="point" transform="translate(311.5,234.03)" d="M4,0A4,4 0 1,1 0,-4A4,4 0 0,1 4,0Z" style="opacity: 1; stroke-width: 2px; fill: rgb(0, 165, 255); fill-opacity: 1; stroke: rgb(68, 68, 68); stroke-opacity: 1;"/><path class="point" transform="translate(292.03,208)" d="M4,0A4,4 0 1,1 0,-4A4,4 0 0,1 4,0Z" style="opacity: 1; stroke-width: 2px; fill: rgb(0, 165, 255); fill-opacity: 1; stroke: rgb(68, 68, 68); stroke-opacity: 1;"/><path class="point" transform="translate(292.03,181.97)" d="M4,0A4,4 0 1,1 0,-4A4,4 0 0,1 4,0Z" style="opacity: 1; stroke-width: 2px; fill: rgb(0, 165, 255); fill-opacity: 1; stroke: rgb(68, 68, 68); stroke-opacity: 1;"/><path class="point" transform="translate(272.56,155.94)" d="M4,0A4,4 0 1,1 0,-4A4,4 0 0,1 4,0Z" style="opacity: 1; stroke-width: 2px; fill: rgb(0, 165, 255); fill-opacity: 1; stroke: rgb(68, 68, 68); stroke-opacity: 1;"/><path class="point" transform="translate(253.09,129.91)" d="M4,0A4,4 0 1,1 0,-4A4,4 0 0,1 4,0Z" style="opacity: 1; stroke-width: 2px; fill: rgb(0, 165, 255); fill-opacity: 1; stroke: rgb(68, 68, 68); stroke-opacity: 1;"/><path class="point" transform="translate(194.69,103.89)" d="M4,0A4,4 0 1,1 0,-4A4,4 0 0,1 4,0Z" style="opacity: 1; stroke-width: 2px; fill: rgb(0, 165, 255); fill-opacity: 1; stroke: rgb(68, 68, 68); stroke-opacity: 1;"/><path class="point" transform="translate(194.69,77.86)" d="M4,0A4,4 0 1,1 0,-4A4,4 0 0,1 4,0Z" style="opacity: 1; stroke-width: 2px; fill: rgb(0, 165, 255); fill-opacity: 1; stroke: rgb(68, 68, 68); stroke-opacity: 1;"/><path class="point" transform="translate(155.75,51.83)" d="M4,0A4,4 0 1,1 0,-4A4,4 0 0,1 4,0Z" style="opacity: 1; stroke-width: 2px; fill: rgb(0, 165, 255); fill-opacity: 1; stroke: rgb(68, 68, 68); stroke-opacity: 1;"/><path class="point" transform="translate(116.81,25.8)" d="M4,0A4,4 0 1,1 0,-4A4,4 0 0,1 4,0Z" style="opacity: 1; stroke-width: 2px; fill: rgb(0, 165, 255); fill-opacity: 1; stroke: rgb(68, 68, 68); stroke-opacity: 1;"/></g><g class="text"><g class="textpoint" transform="translate(-6,3)"><text x="330.97" y="390.2" text-anchor="end" style="font-family: 'Open Sans', verdana, arial, sans-serif; font-size: 12px; fill: rgb(42, 63, 95); fill-opacity: 1; white-space: pre;">1964</text></g><g class="textpoint" transform="translate(-6,3)"><text x="330.97" y="364.17" text-anchor="end" style="font-family: 'Open Sans', verdana, arial, sans-serif; font-size: 12px; fill: rgb(42, 63, 95); fill-opacity: 1; white-space: pre;">1964</text></g><g class="textpoint" transform="translate(-6,3)"><text x="330.97" y="338.14" text-anchor="end" style="font-family: 'Open Sans', verdana, arial, sans-serif; font-size: 12px; fill: rgb(42, 63, 95); fill-opacity: 1; white-space: pre;">1964</text></g><g class="textpoint" transform="translate(-6,3)"><text x="330.97" y="312.11" text-anchor="end" style="font-family: 'Open Sans', verdana, arial, sans-serif; font-size: 12px; fill: rgb(42, 63, 95); fill-opacity: 1; white-space: pre;">1964</text></g><g class="textpoint" transform="translate(-6,3)"><text x="330.97" y="286.09" text-anchor="end" style="font-family: 'Open Sans', verdana, arial, sans-serif; font-size: 12px; fill: rgb(42, 63, 95); fill-opacity: 1; white-space: pre;">1964</text></g><g class="textpoint" transform="translate(-6,3)"><text x="330.97" y="260.06" text-anchor="end" style="font-family: 'Open Sans', verdana, arial, sans-serif; font-size: 12px; fill: rgb(42, 63, 95); fill-opacity: 1; white-space: pre;">1964</text></g><g class="textpoint" transform="translate(-6,3)"><text x="311.5" y="234.03" text-anchor="end" style="font-family: 'Open Sans', verdana, arial, sans-serif; font-size: 12px; fill: rgb(42, 63, 95); fill-opacity: 1; white-space: pre;">1960</text></g><g class="textpoint" transform="translate(-6,3)"><text x="292.03" y="208" text-anchor="end" style="font-family: 'Open Sans', verdana, arial, sans-serif; font-size: 12px; fill: rgb(42, 63, 95); fill-opacity: 1; white-space: pre;">1956</text></g><g class="textpoint" transform="translate(-6,3)"><text x="292.03" y="181.97" text-anchor="end" style="font-family: 'Open Sans', verdana, arial, sans-serif; font-size: 12px; fill: rgb(42, 63, 95); fill-opacity: 1; white-space: pre;">1956</text></g><g class="textpoint" transform="translate(-6,3)"><text x="272.56" y="155.94" text-anchor="end" style="font-family: 'Open Sans', verdana, arial, sans-serif; font-size: 12px; fill: rgb(42, 63, 95); fill-opacity: 1; white-space: pre;">1952</text></g><g class="textpoint" transform="translate(-6,3)"><text x="253.09" y="129.91" text-anchor="end" style="font-family: 'Open Sans', verdana, arial, sans-serif; font-size: 12px; fill: rgb(42, 63, 95); fill-opacity: 1; white-space: pre;">1948</text></g><g class="textpoint" transform="translate(-6,3)"><text x="194.69" y="103.89" text-anchor="end" style="font-family: 'Open Sans', verdana, arial, sans-serif; font-size: 12px; fill: rgb(42, 63, 95); fill-opacity: 1; white-space: pre;">1936</text></g><g class="textpoint" transform="translate(-6,3)"><text x="194.69" y="77.86" text-anchor="end" style="font-family: 'Open Sans', verdana, arial, sans-serif; font-size: 12px; fill: rgb(42, 63, 95); fill-opacity: 1; white-space: pre;">1936</text></g><g class="textpoint" transform="translate(-6,3)"><text x="155.75" y="51.83" text-anchor="end" style="font-family: 'Open Sans', verdana, arial, sans-serif; font-size: 12px; fill: rgb(42, 63, 95); fill-opacity: 1; white-space: pre;">1928</text></g><g class="textpoint" transform="translate(-6,3)"><text x="116.81" y="25.8" text-anchor="end" style="font-family: 'Open Sans', verdana, arial, sans-serif; font-size: 12px; fill: rgb(42, 63, 95); fill-opacity: 1; white-space: pre;">1920</text></g></g></g><g class="trace scatter trace014ed3" style="stroke-miterlimit: 2; opacity: 1;"><g class="fills"/><g class="errorbars"/><g class="lines"><path class="js-line" d="M603.53,390.2L603.53,25.8" style="vector-effect: non-scaling-stroke; fill: none; stroke: rgb(127, 136, 145); stroke-opacity: 1; stroke-width: 3px; opacity: 1;"/></g><g class="points"/><g class="text"/></g></g></g><g class="overplot"/><path class="xlines-above crisp" d="M0,0" style="fill: none;"/><path class="ylines-above crisp" d="M0,0" style="fill: none;"/><g class="overlines-above"/><g class="xaxislayer-above"><g class="xtick"><text text-anchor="middle" x="0" y="559" transform="translate(97,0)" style="font-family: 'Noto Sans'; font-size: 12px; fill: rgb(42, 63, 95); fill-opacity: 1; white-space: pre;">1896</text></g><g class="xtick"><text text-anchor="middle" x="0" y="559" transform="translate(700.53,0)" style="font-family: 'Noto Sans'; font-size: 12px; fill: rgb(42, 63, 95); fill-opacity: 1; white-space: pre;">2020</text></g></g><g class="yaxislayer-above"><g class="ytick"><text text-anchor="end" x="66" y="4.199999999999999" transform="translate(0,490.2)" style="font-family: 'Noto Sans'; font-size: 12px; fill: rgb(42, 63, 95); fill-opacity: 1; white-space: pre;">NEP</text></g><g class="ytick"><text text-anchor="end" x="66" y="4.199999999999999" transform="translate(0,464.17)" style="font-family: 'Noto Sans'; font-size: 12px; fill: rgb(42, 63, 95); fill-opacity: 1; white-space: pre;">LBA</text></g><g class="ytick"><text text-anchor="end" x="66" y="4.199999999999999" transform="translate(0,438.14)" style="font-family: 'Noto Sans'; font-size: 12px; fill: rgb(42, 63, 95); fill-opacity: 1; white-space: pre;">CAM</text></g><g class="ytick"><text text-anchor="end" x="66" y="4.199999999999999" transform="translate(0,412.11)" style="font-family: 'Noto Sans'; font-size: 12px; fill: rgb(42, 63, 95); fill-opacity: 1; white-space: pre;">CGO</text></g><g class="ytick"><text text-anchor="end" x="66" y="4.199999999999999" transform="translate(0,386.09)" style="font-family: 'Noto Sans'; font-size: 12px; fill: rgb(42, 63, 95); fill-opacity: 1; white-space: pre;">CHA</text></g><g class="ytick"><text text-anchor="end" x="66" y="4.199999999999999" transform="translate(0,360.06)" style="font-family: 'Noto Sans'; font-size: 12px; fill: rgb(42, 63, 95); fill-opacity: 1; white-space: pre;">MLI</text></g><g class="ytick"><text text-anchor="end" x="66" y="4.199999999999999" transform="translate(0,334.03)" style="font-family: 'Noto Sans'; font-size: 12px; fill: rgb(42, 63, 95); fill-opacity: 1; white-space: pre;">SOM</text></g><g class="ytick"><text text-anchor="end" x="66" y="4.199999999999999" transform="translate(0,308)" style="font-family: 'Noto Sans'; font-size: 12px; fill: rgb(42, 63, 95); fill-opacity: 1; white-space: pre;">LBR</text></g><g class="ytick"><text text-anchor="end" x="66" y="4.199999999999999" transform="translate(0,281.97)" style="font-family: 'Noto Sans'; font-size: 12px; fill: rgb(42, 63, 95); fill-opacity: 1; white-space: pre;">MAL</text></g><g class="ytick"><text text-anchor="end" x="66" y="4.199999999999999" transform="translate(0,255.94)" style="font-family: 'Noto Sans'; font-size: 12px; fill: rgb(42, 63, 95); fill-opacity: 1; white-space: pre;">VNM</text></g><g class="ytick"><text text-anchor="end" x="66" y="4.199999999999999" transform="translate(0,229.91)" style="font-family: 'Noto Sans'; font-size: 12px; fill: rgb(42, 63, 95); fill-opacity: 1; white-space: pre;">MYA</text></g><g class="ytick"><text text-anchor="end" x="66" y="4.199999999999999" transform="translate(0,203.89)" style="font-family: 'Noto Sans'; font-size: 12px; fill: rgb(42, 63, 95); fill-opacity: 1; white-space: pre;">LIE</text></g><g class="ytick"><text text-anchor="end" x="66" y="4.199999999999999" transform="translate(0,177.86)" style="font-family: 'Noto Sans'; font-size: 12px; fill: rgb(42, 63, 95); fill-opacity: 1; white-space: pre;">BOL</text></g><g class="ytick"><text text-anchor="end" x="66" y="4.199999999999999" transform="translate(0,151.82999999999998)" style="font-family: 'Noto Sans'; font-size: 12px; fill: rgb(42, 63, 95); fill-opacity: 1; white-space: pre;">MLT</text></g><g class="ytick"><text text-anchor="end" x="66" y="4.199999999999999" transform="translate(0,125.8)" style="font-family: 'Noto Sans'; font-size: 12px; fill: rgb(42, 63, 95); fill-opacity: 1; white-space: pre;">MON</text></g></g><g class="overaxes-above"/></g></g><g class="polarlayer"/><g class="ternarylayer"/><g class="geolayer"/><g class="funnelarealayer"/><g class="pielayer"/><g class="treemaplayer"/><g class="sunburstlayer"/><g class="glimages"/><defs id="topdefs-e69d8b"><g class="clips"/></defs><g class="layer-above"><g class="imagelayer"/><g class="shapelayer"/></g><g class="infolayer"><g class="g-gtitle"/><g class="g-xtitle"/><g class="g-ytitle"/></g></svg>